<svg xmlns="http://www.w3.org/2000/svg" xmlns:xlink="http://www.w3.org/1999/xlink" viewBox="0 0 879 764.33"><defs><style>.cls-1{fill:#b7a11d;}.cls-2{fill:url(#linear-gradient);}.cls-3{fill:url(#linear-gradient-2);}.cls-4{fill:url(#linear-gradient-3);}.cls-5{fill:url(#linear-gradient-4);}.cls-6{fill:url(#linear-gradient-5);}</style><linearGradient id="linear-gradient" x1="147.15" y1="555.19" x2="723.62" y2="555.19" gradientUnits="userSpaceOnUse"><stop offset="0" stop-color="#b7a11d"/><stop offset="1" stop-color="#685507"/></linearGradient><linearGradient id="linear-gradient-2" x1="384.13" y1="276.32" x2="521.32" y2="528.01" gradientUnits="userSpaceOnUse"><stop offset="0"/><stop offset="1" stop-color="#2b2b2b"/></linearGradient><linearGradient id="linear-gradient-3" x1="332.89" y1="251.94" x2="453.17" y2="315.53" gradientUnits="userSpaceOnUse"><stop offset="0" stop-color="#494948"/><stop offset="1" stop-color="#232323"/></linearGradient><linearGradient id="linear-gradient-4" x1="74" y1="801.25" x2="204.03" y2="801.25" gradientUnits="userSpaceOnUse"><stop offset="0.03"/><stop offset="1" stop-color="#333"/></linearGradient><linearGradient id="linear-gradient-5" x1="710" y1="498.77" x2="940.64" y2="498.77" xlink:href="#linear-gradient-4"/></defs><g id="Layer_2" data-name="Layer 2"><path class="cls-1" d="M844.22,550.41,736.49,596.22A120.78,120.78,0,0,1,711,536.41l44.9-19.1,62.84-26.72L831.5,520.5Z" transform="translate(-74 -117.67)"/><path class="cls-2" d="M691.16,544.87,206.91,750.79l-.86,1.88a87.55,87.55,0,0,1,23.93,59l486.73-207A142.32,142.32,0,0,1,691.16,544.87ZM321,347.9l-15.92,34.55A170.15,170.15,0,0,0,360,391.5q6.39,0,12.68-.47L380,375.1Zm22.4,47a18.86,18.86,0,0,0-13.61,7.32L322.16,411a21.42,21.42,0,0,1-14.39,7,20.92,20.92,0,0,1-15.28-4.82l-1.16-1L147.15,725.15A87.64,87.64,0,0,1,205,751.6l1.89-.81L364.19,409.45A20,20,0,0,0,343.38,394.94ZM507.2,312.26a20.1,20.1,0,0,0-4.66,14.4A18.75,18.75,0,0,0,510,340.17l8.92,7.51a20.73,20.73,0,0,1,6.7,11.05,21,21,0,0,1-4.48,18.54l-9.41,10.88,181.81,96.14a142.56,142.56,0,0,1,30.13-57.59Zm-25.51-13.49-30.38,57.46,7.31,3.87A171.4,171.4,0,0,0,504.83,311Z" transform="translate(-74 -117.67)"/><path class="cls-1" d="M846.69,491.77,831.5,520.5l-15.19,28.73-60.37-31.92L712.8,494.5a121,121,0,0,1,30.41-57.45Z" transform="translate(-74 -117.67)"/><path d="M211,813.5q0,3.19-.29,6.31A68.5,68.5,0,0,1,86.46,852.9,90.56,90.56,0,0,0,204,783.34,68.36,68.36,0,0,1,211,813.5Z" transform="translate(-74 -117.67)"/><path d="M953,520.5A121.49,121.49,0,1,1,831.5,399,121.5,121.5,0,0,1,953,520.5Z" transform="translate(-74 -117.67)"/><path d="M528.42,237.33l-12.89,1c-10.51.79-20-7.62-20.81-18.39A18.56,18.56,0,0,1,500,205.45l7.69-8.77a20.87,20.87,0,0,0-2.21-29.58L485.2,149.78A21.58,21.58,0,0,0,455.53,152l-7.38,8.57a19.23,19.23,0,0,1-13.92,7.61c-10.85.81-20.58-7.33-21.36-17.76l-1-13c-.85-11.44-10.83-20.58-22.36-19.72l-25.77,1.93c-11.53.87-20,11.3-19.09,22.83l1,12.89c.78,10.42-7.63,19.92-18.48,20.73a19,19,0,0,1-14.54-5.22l-8.83-7.52a21,21,0,0,0-15.29-4.82,21.47,21.47,0,0,0-14.39,7l-17.67,20.08a20.92,20.92,0,0,0,2.21,29.5l8.56,7.37a19.26,19.26,0,0,1,7.69,13.83c.81,10.85-7.33,20.5-17.84,21.29l-12.89,1c-11.61.87-20.68,10.68-19.82,22.21l1,12.88,1,12.89c.86,11.44,11.29,19.87,22.91,19l12.89-1c10.51-.79,20,7.62,20.81,18.39a19.23,19.23,0,0,1-5.54,14.82L270.26,366A169.79,169.79,0,0,0,360,391.5q6.39,0,12.68-.47a169.54,169.54,0,0,0,85.94-30.93A171.4,171.4,0,0,0,504.83,311a169.37,169.37,0,0,0,24.9-73.74Zm-134.58,112a68,68,0,0,1-72.91-62.74c-.13-1.73-.19-3.45-.19-5.15a68,68,0,1,1,73.1,67.89Z" transform="translate(-74 -117.67)"/><path class="cls-3" d="M551.48,282.32l-1-13-1-12.88c-.66-11.1-8.92-19.35-19.81-19.2A169.37,169.37,0,0,1,504.83,311a171.4,171.4,0,0,1-46.21,49.09A169.54,169.54,0,0,1,372.68,391q-6.29.47-12.68.47A169.79,169.79,0,0,1,270.26,366l-.3.34a20.93,20.93,0,0,0,2.21,29.5l19.16,16.41,1.16,1a20.92,20.92,0,0,0,15.28,4.82,21.42,21.42,0,0,0,14.39-7l7.61-8.76a18.86,18.86,0,0,1,13.61-7.32,20,20,0,0,1,20.81,14.51,17.41,17.41,0,0,1,.55,3.24l1,12.88c.86,11.45,10.75,20.6,22.36,19.73l25.78-1.93c11.52-.87,19.95-11.3,19.09-22.83l-1-12.89c-.78-10.43,7.63-19.92,18.48-20.74a19.81,19.81,0,0,1,14.9,5.45l8.57,7.37a21.55,21.55,0,0,0,29.67-2.22l8.09-9.36,9.41-10.88a21,21,0,0,0,4.48-18.54,20.73,20.73,0,0,0-6.7-11.05L510,340.17a18.75,18.75,0,0,1-7.41-13.51,20.1,20.1,0,0,1,4.66-14.4,19.08,19.08,0,0,1,13.19-6.89l12.88-1C544.8,303.54,552.35,293.85,551.48,282.32Z" transform="translate(-74 -117.67)"/><path class="cls-4" d="M456.58,276.39a68,68,0,0,0-135.84,5c0,1.7.06,3.42.19,5.15a68,68,0,0,0,135.65-10.17ZM389,317a35,35,0,1,1,35-35A35,35,0,0,1,389,317Z" transform="translate(-74 -117.67)"/><circle cx="315" cy="164.33" r="35"/><path class="cls-5" d="M197.09,772.11A69.19,69.19,0,0,0,185.27,760a68.21,68.21,0,0,0-42.77-15c-1.53,0-3.05,0-4.56.16A68.5,68.5,0,0,0,86.46,852.9,90.56,90.56,0,0,0,204,783.34,69.11,69.11,0,0,0,197.09,772.11Z" transform="translate(-74 -117.67)"/><path d="M953,520.5c0,3.78-.18,7.5-.51,11.19A121.51,121.51,0,0,1,732.1,590.38,160.62,160.62,0,0,0,940.64,467,121.31,121.31,0,0,1,953,520.5Z" transform="translate(-74 -117.67)"/><path class="cls-6" d="M928.33,447.09a123,123,0,0,0-21-21.5A121,121,0,0,0,831.5,399q-4.07,0-8.09.28a121.5,121.5,0,0,0-91.31,191.1A160.62,160.62,0,0,0,940.64,467,122.34,122.34,0,0,0,928.33,447.09Z" transform="translate(-74 -117.67)"/></g></svg>